<?xml version="1.0" encoding="utf-8"?>
<!-- Generator: Adobe Illustrator 23.0.3, SVG Export Plug-In . SVG Version: 6.00 Build 0)  -->
<svg version="1.1" id="Calque_1" xmlns="http://www.w3.org/2000/svg" xmlns:xlink="http://www.w3.org/1999/xlink" x="0px" y="0px"
	 viewBox="0 0 479 479" style="enable-background:new 0 0 479 479;" xml:space="preserve">
<style type="text/css">
	.st0{fill:#15351A;}
	.st1{fill:#FC685B;}
	.st2{fill:#E0E0DE;}
	.st3{fill:#7A432A;}
	.st4{fill:#D6D6D4;}
	.st5{fill:#95573A;}
	.st6{fill:#8F4D2E;}
</style>
<path class="st0" d="M146.2,281.5L146.2,281.5l-59.4-25.1v-79.8C86.8,84,161.9,9,254.5,9h16c69.8,0,132.2,43.2,156.8,108.5
	c2.3,5.9,4.1,11.9,5.6,18c0.6,1.9,1,3.8,1.4,5.8c0.4,1.2,0.6,2.4,0.8,3.7c0.2,0.7,0.2,1.4,0.4,2.1c0.8,4.7,1.5,9.4,1.9,14.2
	c0.2,2.2,0.4,4.5,0.5,6.8c0.2,2.9,0.2,5.7,0.2,8.6l-28.2,3l-79.2,8.4c-0.8,0.1-1.6,0.2-2.3,0.4c-24.1,3.7-41.9,24.4-42,48.8
	c0,13.4-3.8,26.4-11.2,37.6c-6.6,10.2-15.7,18.5-26.5,24l-2.2-1.1c-25.1-11.4-52.3-17.3-79.8-17.3c-5.3,0-10.7,0.2-16,0.7
	L146.2,281.5z"/>
<path class="st1" d="M187.7,67.8l-8.4-13.6c5.6-3.4,11.4-6.5,17.5-9.2l6.4,14.6C197.8,62,192.6,64.7,187.7,67.8z"/>
<path class="st1" d="M126.9,169.8l-16-0.8c2.3-41.1,22-79.3,54.3-104.9l9.9,12.5C146.5,99.3,128.9,133.2,126.9,169.8z"/>
<path class="st2" d="M438.1,176.6c0-26.8-6.5-53.2-18.8-77l-21.1,21.1l11.8,58.8L438.1,176.6z"/>
<path class="st3" d="M182.6,168.6l39.9,24l-16,39.9l-31.9-31.9L182.6,168.6z"/>
<path class="st4" d="M470,280.4h-10.6l2-24h8.6c4.4,0,8-3.6,8-8s-3.6-8-8-8H355.9l-26.3-72.2L455,152.6c2.9-0.3,5.4-2.1,6.5-4.8
	c1.1-2.7,0.8-5.7-1-8s-4.6-3.5-7.5-3l-177,22.1c-12.1,1.5-22.3,9.8-26.2,21.3l-2.8,9.7c-0.1,0.2-0.1,0.3-0.1,0.5L235.5,230
	c-3.7,13,1.1,26.9,12.1,34.8l42.1,30.1c1.3,1,3,1.5,4.6,1.5h63.4l11.4,34.1c4.3,13,16.5,21.8,30.3,21.8h46.6c4.2,0,7.6-3.2,8-7.3
	l4-48.6h12c4.4,0,8-3.6,8-8S474.4,280.4,470,280.4z M445.4,256.5l-2,24h-74.1l-8-24H445.4z M278,174.8l35.4-4.4l25.5,70.2h-17.6
	L263.6,190l1.4-4.8C267,179.5,272,175.5,278,174.8z M296.9,280.4l-40-28.6c-5.5-3.9-7.9-10.9-6.1-17.4l7.9-27.5l54.4,47.6
	c1.5,1.3,3.3,2,5.3,2h26.2l8,24H296.9z M438.7,336.3h-39.3c-6.9,0-13-4.4-15.2-10.9l-9.6-29h67.4L438.7,336.3z"/>
<path class="st5" d="M166.1,280.4c-51.1,0.3-100,20.9-136,57.2l-12,12.2C11,357,6.9,366.9,7,377.1c0.1,10.2,4.2,20,11.4,27.2
	l12.2,12c36.3,35.9,85.5,56,136.6,55.7c51.1-0.3,100-20.9,136-57.2l12-12.2c7.2-7.3,11.2-17.1,11.2-27.3c-0.1-10.2-4.2-20-11.4-27.2
	l-12.2-12C266.4,300.2,217.2,280.1,166.1,280.4z"/>
<path class="st2" d="M46.6,322.9l0.6,108c12.3,9.7,25.8,17.8,40.1,24.2l-0.9-156.9C72.2,304.8,58.8,313.1,46.6,322.9z"/>
<path class="st2" d="M246,297.3l0.9,156.9c14.2-6.6,27.6-14.8,39.8-24.6l-0.6-108C273.8,311.9,260.3,303.7,246,297.3z"/>
<path class="st6" d="M246.5,408.5c-25,5.1-50.4,7.6-75.8,7.6c-28.2,0.1-56.3-3.1-83.8-9.4v47.9c-10.6-4.8-20.8-10.6-30.3-17.3
	c66.2,46.2,154.1,46.2,220.3,0c-9.5,6.7-19.7,12.4-30.3,17.3V408.5z"/>
<path class="st6" d="M7.1,374.9c0,0.4-0.1,0.8-0.1,1.3c0,10.2,4.1,20,11.3,27.3l12.1,12.1c5.2,5.2,10.7,10.1,16.5,14.7v-35.7
	C33,389.3,19.7,382.7,7.1,374.9z"/>
<path class="st6" d="M286.4,430.2c5.8-4.6,11.3-9.5,16.5-14.7l12.1-12.1c6.3-6.4,10.2-14.7,10.9-23.6c-12.6,7-25.9,13-39.6,17.7
	V430.2z"/>
<path class="st4" d="M86.8,406.8c-13.6-3.1-26.9-7.2-39.9-12.2v35.6c3,2.4,6.1,4.7,9.2,6.9l0.4,0.3c9.6,6.7,19.7,12.5,30.3,17.3
	V406.8z"/>
<path class="st4" d="M246.5,408.5v46.1c10.6-4.8,20.8-10.6,30.3-17.3l0.4-0.3c3.1-2.2,6.2-4.5,9.2-6.9v-32.7
	C273.4,402.1,260,405.8,246.5,408.5z"/>
<g>
	<path class="st2" d="M222.5,367.9l-16,0.1l-0.1-16l-16,0.1l0.1,16l-16,0.1l-0.1-16l-16,0.1l0.1,16l-16,0.1l-0.1-16l-16,0.1l0.1,16
		l-16,0.1l0.1,16l16-0.1l0.1,16l16-0.1l-0.1-16l16-0.1l0.1,16l16-0.1l-0.1-16l16-0.1l0.1,16l16-0.1l-0.1-16l16-0.1L222.5,367.9z"/>
	<path class="st2" d="M254.5,120.7h16v16h-16V120.7z"/>
	<path class="st2" d="M174.6,248.5h16v16h-16V248.5z"/>
	<path class="st2" d="M146.2,281.5L146.2,281.5l-59.4-25.1v-60.7l42.9,30.1c13.1,9.1,20.9,24.1,20.9,40.1v15.2"/>
</g>
<path class="st0" d="M166.1,264.4c-5.2,0-10.3,0.4-15.5,0.8c0,0.2,0,0.5,0,0.7v15.1c5.3-0.4,10.6-0.7,16-0.7
	c27.5,0,54.8,5.9,79.8,17.3l2.2,1.1c4.8-2.5,9.4-5.6,13.5-9.2C232.9,272.9,199.8,264.3,166.1,264.4z"/>
<path class="st4" d="M150.6,265.2c-10.4,0.9-20.7,2.6-30.9,5.1l26.3,11.2h0.1l4.5-0.5V266C150.7,265.7,150.7,265.5,150.6,265.2z"/>
<path d="M203.2,59.6L196.8,45c-6,2.7-11.9,5.7-17.5,9.2l8.4,13.6C192.7,64.7,197.8,62,203.2,59.6z"/>
<path d="M111,168.9l16,0.8c2-36.6,19.6-70.5,48.3-93.2l-9.9-12.5C133,89.6,113.2,127.8,111,168.9z"/>
<path d="M470,256.5c4.4,0,8-3.6,8-8s-3.6-8-8-8H355.9l-16.5-45.4l99.5-10.5c4.1-0.4,7.2-3.9,7.2-8c0-3-0.1-6-0.2-8.9
	c0-0.2,0-0.3,0-0.5c-0.1-1.2-0.2-2.4-0.2-3.6c-0.1-1-0.1-2.1-0.2-3.1c-0.1-0.8-0.2-1.5-0.3-2.3c-0.2-1.4-0.3-2.9-0.5-4.3l10.5-1.3
	c2.9-0.3,5.4-2.1,6.5-4.8c1.1-2.7,0.8-5.7-1-8c-1.8-2.3-4.6-3.5-7.5-3l-11.3,1.4c-2.7-11.8-6.6-23.2-11.6-34.2
	c-0.8-1.7-1.6-3.3-2.4-5c-0.5-1-0.9-2-1.5-3c-0.1-0.1-0.2-0.2-0.3-0.3C395.8,37.7,335.9,1.2,270.4,1h-16
	c-97,0.1-175.5,78.7-175.6,175.6v79.8c0,3.2,1.9,6.1,4.9,7.4l24,10.1l6.2-14.7l-19.1-8.1v-40l30.4,21.3c8.7,6.1,14.7,15.2,16.7,25.6
	l15.7-3.1c-2.9-14.4-11.2-27.2-23.2-35.6l-39.5-27.8v-15C94.9,88.5,166.3,17.1,254.5,17h16c57.6,0.2,110.6,31.2,139,81.2l-16.9,16.9
	c-1.9,1.9-2.7,4.6-2.2,7.2l4.4,21.8L276,158.9c-12.1,1.5-22.3,9.8-26.2,21.3l-2.8,9.7c-0.1,0.2-0.1,0.3-0.1,0.5L235.5,230
	c-3.7,13,1.1,26.9,12.1,34.8l42.1,30.1c1.3,1,3,1.5,4.6,1.5h63.4l11.4,34.1c4.3,13,16.5,21.8,30.3,21.8h46.6c4.2,0,7.6-3.2,8-7.3
	l4-48.6h12c4.4,0,8-3.6,8-8s-3.6-8-8-8h-10.6l2-24H470z M338.9,240.5h-17.6l-23.2-20.3c4.8-10.7,14-18.9,25.2-22.4L338.9,240.5z
	 M416.3,170.9l-2.6-13.1l15-1.9v0.1c0.6,4.3,1,8.6,1.2,13v0.4l-11.3,1.2L416.3,170.9z M406.8,123.4l10-10c0.4,0.9,0.8,1.9,1.2,2.9
	c1.2,2.8,2.3,5.6,3.2,8.4c0.4,1.1,0.8,2.2,1.2,3.3c0.9,2.8,1.6,5.5,2.3,8.3c0.1,0.4,0.3,0.9,0.4,1.3c0.2,0.8,0.5,1.6,0.7,2.5
	l-15.3,1.9L406.8,123.4z M400.4,172.6l-66.7,7l-4.1-11.3l68.2-8.5L400.4,172.6z M277.9,174.8l35.4-4.4l4.5,12.4
	c-13.7,4.5-25.1,14-32.1,26.6L263.6,190l1.4-4.8C267,179.5,272,175.5,277.9,174.8L277.9,174.8z M250.8,234.4l7.9-27.5l21.1,18.5
	c-0.9,3.9-1.3,7.8-1.3,11.8c0,9-2,17.8-5.8,25.9l-15.7-11.2C251.4,247.9,249,240.9,250.8,234.4L250.8,234.4z M296.9,280.4l-11.3-8.1
	c5.5-10.6,8.5-22.3,8.7-34.3l18.7,16.4c1.5,1.3,3.3,2,5.3,1.9h26.2l8,24H296.9z M438.7,336.3h-39.3c-6.9,0-13-4.4-15.2-10.9l-9.6-29
	h67.4L438.7,336.3z M443.4,280.4h-74.1l-8-24h84L443.4,280.4z"/>
<path d="M254.5,120.7h16v16h-16V120.7z"/>
<path d="M174.6,248.5h16v16h-16V248.5z"/>
<path d="M174.9,166.7l-8,31.9c-0.7,2.7,0.1,5.6,2.1,7.6l31.9,31.9c1.5,1.5,3.5,2.3,5.6,2.3c0.5,0,1.1-0.1,1.6-0.2
	c2.6-0.5,4.8-2.4,5.8-4.8l16-39.9c1.5-3.6,0.1-7.8-3.3-9.8l-39.9-24c-2.2-1.3-4.8-1.5-7.2-0.5C177.2,162.2,175.5,164.3,174.9,166.7
	L174.9,166.7z M187.8,181l24.8,14.9l-8.9,22.4l-20.2-20.2L187.8,181z"/>
<path d="M24.7,421.2c78.4,78.4,205.5,78.4,283.9,0l12.1-12.1c18.2-18.2,18.2-47.6,0-65.8l-12.1-12.1c-78.4-78.4-205.5-78.4-283.9,0
	l-12.1,12.1c-18.2,18.2-18.2,47.6,0,65.8L24.7,421.2z M58.5,323.5c2.7-1.9,5.3-3.9,8-5.6l0.1-0.1c4-2.6,8-5,12.2-7.2v131.1
	c-4.1-2.2-8.2-4.6-12.1-7.2l-0.2-0.1c-2.7-1.8-5.4-3.7-8-5.6c-1.2-0.9-2.4-1.8-3.6-2.7v-99.9C56.1,325.3,57.3,324.4,58.5,323.5z
	 M254.5,441.8V310.7c4.2,2.2,8.2,4.6,12.2,7.2l0.1,0.1c2.7,1.8,5.4,3.7,8,5.6c1.2,0.9,2.4,1.8,3.6,2.7v99.9
	c-1.2,0.9-2.4,1.8-3.6,2.7c-2.7,1.9-5.3,3.8-8,5.6l-0.2,0.1C262.6,437.1,258.6,439.5,254.5,441.8z M309.4,354.6
	c11.9,11.9,11.9,31.3,0,43.2l-12.1,12.1c-0.9,0.9-2,1.7-2.9,2.6v-72.6c1,0.9,2,1.7,2.9,2.6L309.4,354.6z M238.5,302.9v146.6
	c-46,19.3-97.7,19.3-143.7,0V302.9C140.8,283.6,192.6,283.6,238.5,302.9z M23.9,354.6L36,342.5c0.9-0.9,2-1.7,2.9-2.6v72.6
	c-1-0.9-2-1.7-2.9-2.6l-12.1-12.1C12,385.9,12,366.5,23.9,354.6z"/>
<path d="M110.8,384.2h16v16h16v-16h16v16h16v-16h16v16h16v-16h16v-16h-16v-16h-16v16h-16v-16h-16v16h-16v-16h-16v16h-16V384.2z"/>
</svg>
