<?xml version="1.0" encoding="UTF-8"?>
<!-- Generator: Adobe Illustrator 16.0.4, SVG Export Plug-In . SVG Version: 6.00 Build 0)  -->
<!DOCTYPE svg PUBLIC "-//W3C//DTD SVG 1.1//EN" "http://www.w3.org/Graphics/SVG/1.1/DTD/svg11.dtd">
<svg version="1.1" id="Calque_1" xmlns="http://www.w3.org/2000/svg" xmlns:xlink="http://www.w3.org/1999/xlink" x="0px" y="0px" width="566.93px" height="566.93px" viewBox="0 0 566.93 566.93" enable-background="new 0 0 566.93 566.93" xml:space="preserve">
<g>
	<path fill="#64BCE0" d="M323.698,449.759l-93.371,26.332c7.016,8.854,17.165,13.354,26.604,10.693l49.647-13.996   C316.04,470.11,322.333,460.988,323.698,449.759 M221.414,466.254l0.054,0.179c1.134,4.034,5.329,6.392,9.368,5.249l91.979-25.939   c4.026-1.125,6.383-5.32,5.249-9.373l-0.062-0.178c-1.143-4.035-5.32-6.373-9.363-5.249l-91.979,25.939   C222.628,458.024,220.281,462.22,221.414,466.254 M216.242,447.902l0.053,0.196c1.134,4.017,5.329,6.373,9.368,5.23l91.966-25.938   c4.043-1.143,6.391-5.338,5.248-9.355l-0.044-0.196c-1.143-4.034-5.338-6.391-9.364-5.248l-91.983,25.957   C217.446,439.672,215.099,443.867,216.242,447.902 M211.011,429.354l0.045,0.179c1.143,4.053,5.338,6.392,9.372,5.249   l91.979-25.939c4.043-1.125,6.382-5.32,5.239-9.373l-0.054-0.178c-1.124-4.035-5.319-6.373-9.363-5.249l-91.97,25.939   C212.216,421.124,209.868,425.319,211.011,429.354 M63.11,280.306l-34.062,9.604c-4.124,1.16-6.529,5.463-5.369,9.587   c1.16,4.105,5.458,6.534,9.582,5.355l34.066-9.604c4.12-1.16,6.525-5.463,5.365-9.568C71.532,281.556,67.233,279.146,63.11,280.306    M83.631,190.781c1.036-1.883,1.272-4.062,0.679-6.114c-0.603-2.062-1.978-3.775-3.861-4.811l-32.161-17.674   c-1.883-1.036-4.053-1.276-6.119-0.678c-2.062,0.607-3.771,1.964-4.807,3.847c-1.031,1.884-1.281,4.062-0.674,6.124   c0.603,2.071,1.964,3.776,3.847,4.811l32.166,17.674c1.865,1.026,4.012,1.276,6.061,0.696c0.027-0.009,0.045-0.018,0.062-0.018   C80.891,194.039,82.6,192.665,83.631,190.781 M113.694,369.316l-16.607,20.799c-2.32,2.909-1.848,7.176,1.067,9.515   c1.419,1.125,3.182,1.643,4.985,1.429c0.375-0.036,0.737-0.107,1.094-0.197c1.353-0.393,2.553-1.178,3.437-2.303l16.611-20.798   c2.33-2.928,1.844-7.194-1.071-9.515c-1.415-1.125-3.182-1.643-4.98-1.446C116.435,367.014,114.819,367.906,113.694,369.316    M185.786,106.947l-10.064-35.704c-1.219-4.312-5.722-6.838-10.038-5.624c-4.316,1.223-6.837,5.722-5.619,10.042l10.068,35.705   c1.219,4.311,5.713,6.828,10.037,5.614C184.487,115.767,187.009,111.259,185.786,106.947 M295.296,159.79   c-0.161-0.143-0.312-0.304-0.482-0.438c-5.802-4.918-12.135-9.301-18.785-13.032c-6.654-3.722-13.692-6.828-20.922-9.221   c-7.306-2.41-14.871-4.124-22.476-5.079c-15.844-1.99-31.728-0.785-47.21,3.58c-15.487,4.364-29.662,11.639-42.118,21.609   c-5.989,4.803-11.546,10.212-16.509,16.076c-4.918,5.82-9.296,12.14-13.027,18.79c-3.727,6.659-6.824,13.702-9.221,20.932   c-2.415,7.311-4.124,14.862-5.083,22.476c-1.991,15.844-0.786,31.724,3.583,47.197c3.821,13.568,9.899,26.171,18.08,37.49   c7.899,10.926,17.54,20.369,28.675,28.1c3.655,2.535,7.056,4.838,10.336,7.051c23.855,16.175,35.82,24.297,44.657,52.736   c0.79,2.517,2.499,4.605,4.811,5.855c2.312,1.249,4.981,1.553,7.511,0.839l87.123-24.583c2.535-0.714,4.659-2.356,5.972-4.642   c1.33-2.285,1.688-4.944,1.045-7.479c-2.865-11.301-3.678-20.191-2.919-28.403c-4.928-5.392-9.507-9.837-13.47-12.317   c-0.205,0.893-0.5,1.785-0.688,2.713c-2.303,11.443-2.008,22.94,0.973,36.723l-77.295,21.797   c-4.642-13.3-10.412-23.262-18.353-31.83c-8.256-8.891-18.182-15.604-30.741-24.119c-3.254-2.213-6.619-4.498-10.207-6.979   c-19.727-13.692-34.187-33.973-40.712-57.109c-6.114-21.677-4.753-43.688,2.392-63.406c0.643-1.83,1.383-3.66,2.125-5.49   c0.201-0.473,0.375-0.955,0.585-1.428c0.656-1.58,1.223-3.169,1.955-4.758c3.856-7.302,8.337-13.817,13.3-19.709   c0.254-0.312,0.509-0.616,0.777-0.919c1.665-1.946,3.4-3.803,5.19-5.588c0.759-0.768,1.526-1.535,2.312-2.268   c1.054-0.981,2.129-1.937,3.218-2.856c11.216-9.801,24.632-17.406,39.9-21.7c32.924-9.283,66.62-1.446,91.796,18.058   C285.744,165.208,290.387,162.325,295.296,159.79 M335.909,84.989c0.974-1.705,1.214-3.687,0.696-5.579   c-0.509-1.901-1.731-3.472-3.445-4.454c-1.705-0.981-3.695-1.223-5.588-0.705c-0.018,0-0.035,0.009-0.054,0.009   c-1.874,0.536-3.427,1.75-4.392,3.437l-16.638,29.153c-0.964,1.705-1.224,3.686-0.696,5.578c0.518,1.901,1.74,3.473,3.445,4.454   c1.705,0.974,3.687,1.223,5.588,0.706c0.018,0,0.035-0.009,0.053-0.018c1.875-0.526,3.428-1.74,4.393-3.428L335.909,84.989z"/>
	<path fill="#FFFFFF" d="M472.318,395.398c1.356-2.695,2.928-5.069,4.686-7.087c1.759-2.035,3.562-3.803,5.41-5.302   c1.848-1.5,3.686-2.875,5.543-4.106c0.678,0.661,1.053,1.589,1.143,2.785c0.089,1.196-0.125,1.946-0.661,2.214   c-0.785,1.089-2.017,2.945-3.713,5.569c-1.679,2.624-3.473,5.195-5.364,7.694c-1.893,2.518-3.759,4.57-5.598,6.213   c-1.838,1.625-3.373,2.053-4.588,1.285C469.926,401.184,470.971,398.095,472.318,395.398 M483.654,442.832   c0.143,0.393,0.089,0.732-0.179,1.018c-2.017,6.838-4.23,13.479-6.659,19.923c-2.418,6.445-5.516,12.711-9.273,18.78   c-0.92,1.357-1.83,2.696-2.731,4.053c-0.92,1.357-1.893,2.696-2.937,4.053c-0.269,0.143-0.527,0.215-0.795,0.215   c-0.259,0-0.464,0-0.598,0c-0.268-0.125-0.545-0.357-0.821-0.679c-0.269-0.321-0.339-0.554-0.206-0.696   c0.241-1.875,0.438-3.713,0.599-5.517c0.169-1.803,0.58-3.517,1.214-5.124c2.285-6.444,4.98-12.567,8.087-18.352   c3.106-5.802,6.944-11.265,11.523-16.424l1.776-1.821c0.402-0.018,0.66-0.143,0.795-0.429   C483.449,442.101,483.521,442.439,483.654,442.832 M498.641,372.102c-0.285-0.785-0.562-1.375-0.83-1.768   c-3.534-3.945-7.693-5.48-12.487-4.588c-7.186,1.446-12.987,5.303-17.424,11.515c-1.687,2.304-3.222,4.624-4.579,6.98   c-1.356,2.356-2.687,4.749-3.98,7.177c-0.902,1.481-1.679,3.07-2.321,4.748c-0.634,1.679-1.268,3.393-1.91,5.124   c-0.634,1.481-0.821,2.821-0.526,4.017c0.295,1.196,0.848,2.393,1.669,3.57c0.821,1.464,1.839,2.643,3.053,3.553   c3.785,2.339,7.605,3.874,11.497,4.605c3.883,0.732,8.132-0.535,12.746-3.82c1.054-0.82,2.107-1.642,3.16-2.463   c1.044-0.821,2.106-1.625,3.16-2.464c1.499,2.124,1.598,3.928,0.285,5.409c-0.91,1.357-1.856,2.606-2.83,3.749   c-0.973,1.16-1.999,2.268-3.043,3.356c-8.123,8.818-15.567,18.155-22.333,28.027c-3.24,5.106-6.124,10.444-8.623,15.96   c-2.517,5.499-4.508,11.354-6.007,17.514c-0.759,2.409-1.143,4.855-1.17,7.337c-0.026,2.464,0.125,4.892,0.429,7.283   c0.741,4.125,2.839,6.428,6.319,6.909c2.553,0.625,5.053,0.804,7.516,0.571c2.473-0.25,4.883-1.196,7.267-2.838   c5.927-4.106,10.568-9.587,13.915-16.46c3.106-5.659,5.918-11.372,8.409-17.156c2.508-5.784,4.632-11.765,6.399-17.924   c1.634-5.642,3.231-11.14,4.82-16.495c1.571-5.373,2.839-10.872,3.803-16.496c0.116-1.463,0.49-2.767,1.143-3.909   c0.643-1.16,1.481-2.267,2.535-3.356c2.231-2.303,4.392-4.552,6.489-6.712c2.106-2.179,4.204-4.409,6.293-6.713   c1.446-1.499,2.713-3.017,3.829-4.588c1.098-1.535,2.312-3.124,3.615-4.767c0-0.125,0-0.356-0.018-0.696   c0-0.321-0.144-0.624-0.411-0.893c-0.134-0.25-0.375-0.464-0.714-0.589c-0.34-0.125-0.643-0.179-0.902-0.179   c-1.195,0.019-2.267,0.304-3.186,0.857c-1.982,1.499-3.99,2.999-6.035,4.499c-2.035,1.517-4.114,2.945-6.229,4.319   c-0.911,1.214-2.044,1.375-3.393,0.465c-0.018-1.071-0.035-2.231-0.054-3.499c-0.018-1.285,0.09-2.446,0.331-3.518   c0.749-3.088,0.58-5.552-0.526-7.391c-1.099-1.856-2.857-3.303-5.275-4.32c-0.402-0.25-0.849-0.446-1.312-0.571   c-0.465-0.125-1.045-0.321-1.714-0.571C499.203,373.834,498.918,372.905,498.641,372.102 M434.436,398.059   c0.018,0.661-0.107,1.339-0.365,2c-0.107,1.089-0.26,1.945-0.447,2.624c-0.188,0.66-0.276,1.393-0.259,2.196   c-0.339,3.338-0.231,6.212,0.34,8.604c0.58,2.392,1.874,4.142,3.892,5.23c2.026,1.106,4.105,1.106,6.213,0   c0.919-0.554,1.874-1.071,2.874-1.554c0.99-0.481,1.812-1.07,2.472-1.749c1.973-1.624,3.91-3.267,5.82-4.909   c1.901-1.625,3.919-3.268,6.025-4.909c0.91-0.946,1.82-1.893,2.749-2.839c0.91-0.964,1.901-1.91,2.954-2.856   c1.045-0.946,1.723-1.999,2.045-3.142c0.312-1.143,0.589-2.303,0.839-3.518c0.116-1.07-0.339-2.017-1.349-2.874   c-1.008-0.856-2.062-0.928-3.105-0.249c-1.062,0.82-2.151,1.678-3.268,2.553c-1.115,0.893-2.338,1.874-3.65,2.963   c-1.964,1.643-3.98,3.374-6.008,5.213c-2.043,1.839-4.311,3.445-6.828,4.838c-0.446-2.803-0.33-5.784,0.349-8.926   c0.669-3.143,1.196-6.248,1.535-9.337c-0.019-1.196-0.304-2.214-0.849-3.089c-0.553-0.856-1.231-1.678-2.053-2.463   c-2.713-2.625-5.998-3.16-9.836-1.625c-0.786,0.535-1.741,1.321-2.856,2.356c-1.116,1.018-2.223,1.071-3.303,0.144   c-0.286-1.321,0.018-3,0.91-5.018c0.901-2.017,1.535-3.623,1.929-4.838c0.231-1.463,0.214-2.678-0.072-3.605   c-0.276-0.91-0.768-1.785-1.445-2.57c-1.768-1.84-3.589-2.803-5.445-2.91c-1.875-0.09-3.937,0.41-6.186,1.518   c-2.562,6.033-5.15,12.461-7.775,19.244c-2.615,6.784-5.141,13.211-7.568,19.263c-0.768,1.606-1.375,3.284-1.812,5.034   c-0.438,1.731-0.839,3.41-1.214,5.017c-0.224,2.142-0.188,4.338,0.116,6.605c0.294,1.606,1.178,2.784,2.66,3.553   c1.481,0.785,2.892,0.893,4.213,0.339c0.66-0.285,1.33-0.625,1.981-1.035c0.66-0.429,1.124-1.035,1.366-1.839   c1.687-3.231,3.65-6.623,5.936-10.212c2.267-3.57,4.588-6.783,6.936-9.622s4.552-4.98,6.587-6.427   c2.044-1.446,3.812-1.571,5.303-0.393C434.543,396.327,434.427,397.398,434.436,398.059 M396.803,362.783   c1.59,0.303,3.205,0.571,4.812,0.82c1.062-0.285,2.098-0.499,3.089-0.66c0.99-0.143,1.758-0.696,2.275-1.643   c0.644-1.481-0.115-2.874-2.275-4.159c-0.67-0.268-1.241-0.518-1.723-0.768c-0.465-0.268-0.974-0.518-1.518-0.786   c-1.607-0.643-3.143-0.874-4.605-0.714c-1.465,0.161-3,0.59-4.589,1.268c-1.053,0.429-1.615,1.179-1.66,2.25   c-0.044,1.071,0.464,1.999,1.554,2.767C393.644,361.943,395.188,362.479,396.803,362.783 M414.263,389.204   c-0.526-0.125-1.125-0.054-1.785,0.232c-0.669,0-1.401,0.214-2.196,0.643c-0.803,0.41-1.518,0.821-2.178,1.231   c-1.58,1.357-3.195,2.625-4.838,3.785c-1.651,1.16-3.267,2.356-4.838,3.588c-0.535,0.41-1.356,1.089-2.473,2.053   c-1.125,0.946-2.205,1.804-3.258,2.553c-1.053,0.75-1.875,1.196-2.481,1.34c-0.589,0.143-0.643-0.518-0.143-2   c1.018-3.088,2.329-6.569,3.927-10.479c1.598-3.893,2.973-7.463,4.124-10.676c0.5-1.482,0.946-2.678,1.339-3.625   c0.375-0.945,0.09-1.803-0.848-2.588c-1.223-1.321-2.544-2.125-3.945-2.428c-1.41-0.321-2.919-0.59-4.517-0.821   c-1.348-0.25-2.74-0.286-4.213-0.125c-1.464,0.143-2.651,0.964-3.562,2.445c-1.643,5.517-3.41,10.818-5.32,15.925   c-1.91,5.088-3.553,10.532-4.927,16.299c-0.241,1.196-0.321,2.393-0.232,3.605c0.089,1.196,0.143,2.321,0.161,3.393   c0.16,1.464,0.518,2.731,1.062,3.785c0.562,1.07,1.375,2.124,2.455,3.159c2.303,1.429,4.704,1.91,7.229,1.481   c2.268-0.053,3.865-0.928,4.768-2.695c0.125-0.25,1.044-1.178,2.749-2.749c1.704-1.554,3.579-3.303,5.614-5.195   c2.044-1.91,4.008-3.695,5.918-5.409c1.893-1.695,3.178-2.82,3.838-3.374c1.839-1.768,3.544-3.464,5.115-5.088   c1.58-1.624,3.204-3.267,4.918-4.892c0.25-0.535,0.446-1.071,0.571-1.606c0.125-0.536-0.071-0.946-0.616-1.196   C415.28,389.508,414.799,389.329,414.263,389.204 M348.594,399.559c0.018,0.66-0.116,1.339-0.366,1.999   c-0.107,1.089-0.268,1.946-0.446,2.624c-0.196,0.661-0.277,1.393-0.268,2.196c-0.34,3.339-0.232,6.213,0.348,8.604   c0.58,2.393,1.875,4.143,3.892,5.23c2.026,1.107,4.098,1.107,6.204,0c0.928-0.553,1.893-1.07,2.883-1.553   c0.991-0.482,1.812-1.071,2.473-1.749c1.964-1.625,3.91-3.268,5.82-4.909c1.892-1.625,3.909-3.268,6.016-4.91   c0.92-0.945,1.839-1.893,2.758-2.838c0.911-0.965,1.901-1.91,2.955-2.856c1.053-0.946,1.723-2,2.044-3.143   c0.312-1.142,0.599-2.32,0.839-3.517c0.116-1.071-0.339-2.035-1.348-2.874c-1.018-0.856-2.062-0.929-3.106-0.25   c-1.071,0.821-2.142,1.678-3.267,2.553c-1.116,0.893-2.339,1.874-3.65,2.964c-1.973,1.643-3.973,3.374-6.008,5.213   c-2.044,1.838-4.32,3.445-6.819,4.82c-0.464-2.785-0.339-5.767,0.339-8.909c0.67-3.142,1.196-6.248,1.535-9.337   c-0.018-1.195-0.303-2.213-0.856-3.088c-0.545-0.857-1.224-1.678-2.044-2.464c-2.723-2.624-5.99-3.159-9.837-1.624   c-0.785,0.535-1.74,1.32-2.865,2.356c-1.106,1.018-2.214,1.071-3.294,0.143c-0.295-1.321,0.018-2.999,0.92-5.017   c0.893-2.018,1.535-3.624,1.91-4.838c0.24-1.481,0.223-2.678-0.062-3.605c-0.277-0.929-0.768-1.786-1.438-2.571   c-1.785-1.839-3.598-2.803-5.463-2.91c-1.874-0.106-3.928,0.411-6.177,1.5c-2.57,6.052-5.159,12.479-7.766,19.263   c-2.624,6.783-5.15,13.21-7.587,19.262c-0.768,1.607-1.366,3.285-1.803,5.035c-0.447,1.731-0.84,3.409-1.215,5.016   c-0.231,2.143-0.196,4.339,0.116,6.605c0.295,1.607,1.179,2.785,2.66,3.553c1.491,0.785,2.883,0.893,4.213,0.34   c0.651-0.286,1.33-0.625,1.981-1.054c0.661-0.411,1.116-1.018,1.366-1.821c1.678-3.23,3.659-6.623,5.927-10.211   c2.268-3.57,4.588-6.784,6.944-9.623c2.339-2.855,4.553-4.98,6.588-6.426c2.044-1.446,3.812-1.571,5.302-0.394   C348.691,397.827,348.584,398.898,348.594,399.559 M285.303,369.139c-0.455,0.339-0.611,0.964-0.464,1.91   c-0.076,3.463-0.478,6.837-1.228,10.122c-0.741,3.284-1.651,6.498-2.731,9.657c-1.08,3.16-2.196,6.285-3.338,9.373   c-1.151,3.088-2.156,6.105-3.043,9.051c-1.014,3.089-0.768,5.748,0.741,7.998c1.508,2.249,3.302,3.91,5.396,5.017   c2.084,1.089,4.092,1.518,6.021,1.285c1.928-0.231,2.82-1.41,2.642-3.553c-0.196-3.195,0.215-6.873,1.215-11.032   c0.99-4.142,2.695-8.069,5.088-11.801c2.41-3.713,5.587-6.962,9.551-9.765c3.945-2.803,8.729-4.464,14.317-4.945   c2.803-0.321,4.624-0.893,5.48-1.714c0.848-0.803,1.071-1.643,0.66-2.518c-0.429-0.856-1.268-1.66-2.553-2.445   s-2.589-1.285-3.927-1.535c-1.482-0.25-3.143-0.304-4.999-0.215c-1.875,0.107-3.714,0.357-5.499,0.804   c-1.794,0.429-3.418,0.981-4.882,1.679c-1.455,0.695-2.509,1.518-3.151,2.463c-0.054-2.928-0.295-5.23-0.723-6.891   c-0.438-1.66-1.152-2.893-2.169-3.66c-1.018-0.785-2.419-1.16-4.223-1.143c-1.794,0.036-4.168,0.357-7.092,0.929   C286.129,368.478,285.771,368.799,285.303,369.139 M234.036,396.148c-0.139,0.143-0.567,0.411-1.29,0.821   c-0.732,0.411-1.451,0.768-2.183,1.036c-0.732,0.285-1.325,0.356-1.803,0.231c-0.464-0.106-0.509-0.785-0.125-1.999   c0.366-1.875,0.803-3.606,1.303-5.23c0.505-1.607,1.281-3.143,2.325-4.643c1.692-2.553,4.338-3.409,7.958-2.535   C240.588,389.704,238.525,393.792,234.036,396.148 M238.396,410.984c0.089,1.268,0.147,2.445,0.165,3.498   c0.308,2.678,1.214,4.856,2.713,6.57c1.5,1.695,3.383,2.999,5.677,3.892c3.49,1.41,6.899,1.749,10.216,1.035   c3.329-0.731,6.311-2.124,8.939-4.159c3.82-2.874,7.23-6.034,10.247-9.498c3.008-3.445,6.016-6.944,9.024-10.461   c0.656-0.678,1.075-1.625,1.25-2.82c0.183-1.214-0.272-2.071-1.344-2.589c-0.54-0.25-1.08-0.268-1.607-0.071   c-0.531,0.214-0.924,0.446-1.192,0.732c-1.834,1.624-4.204,3.766-7.091,6.426c-2.888,2.643-6.052,5.142-9.48,7.48   c-1.049,0.679-2.61,1.339-4.659,1.964c-2.066,0.643-3.628,0.571-4.717-0.214c-0.138-0.269-0.272-0.5-0.411-0.697   c-0.139-0.195-0.201-0.428-0.21-0.678c-0.714-2.535-1.035-5.428-0.95-8.694c0.071-3.284,0.446-6.659,1.125-10.14   c0.665-3.481,1.544-6.855,2.625-10.158c1.075-3.285,2.191-6.213,3.352-8.766c0.759-2.41,0.12-4.213-1.901-5.373   c-0.272-0.25-0.603-0.482-1.013-0.679c-0.402-0.196-0.741-0.429-1.004-0.679c-4.708-2.053-8.493-0.928-11.354,3.393   c-0.656,0.678-1.214,1.393-1.665,2.143c-0.455,0.731-0.95,1.445-1.459,2.124c-1.473,0.161-2.87,0.25-4.205,0.268   c-1.334,0.036-2.673,0.179-3.995,0.482c-1.071,0.143-2.195,0.339-3.392,0.554c-1.201,0.214-2.334,0.535-3.392,0.963   c-4.517,0.875-7.476,3.464-8.868,7.748c-1.022,2.839-1.772,5.713-2.254,8.658c-0.478,2.946-0.964,5.82-1.446,8.641   c-0.236,1.857,0.192,3.481,1.281,4.874c1.093,1.374,2.575,2.392,4.458,3.017c1.473,0.375,2.915,0.625,4.316,0.732   c1.406,0.107,2.834-0.179,4.285-0.875c1.062-0.428,2.16-0.91,3.28-1.464c1.125-0.554,2.553-1.179,4.271-1.874   C238.178,408.163,238.303,409.717,238.396,410.984 M189.606,391.114c-0.835,1.893-2.37,3.66-4.61,5.284   c0,0.268-0.125,0.411-0.393,0.411c-0.272,0-0.402-0.125-0.411-0.394c-0.263,0-0.566-0.143-0.901-0.481   c-0.348-0.321-0.514-0.625-0.522-0.893c0.228-2.41,0.759-4.57,1.589-6.534c0.83-1.945,2.441-3.48,4.825-4.588   C190.298,386.83,190.437,389.24,189.606,391.114 M185.402,402.201c2.044-0.84,4.137-1.536,6.257-2.107   c3.191-0.856,5.744-1.91,7.663-3.142c1.91-1.231,2.968-3.445,3.178-6.659c0.25-1.195,0.433-2.338,0.54-3.41   c0.12-1.07,0.228-2.213,0.348-3.409c0.062-3.874-1.388-6.855-4.36-8.926c-2.432-1.839-4.891-2.893-7.368-3.178   c-2.477-0.286-4.798-0.125-6.989,0.518c-2.196,0.643-4.28,1.643-6.253,3.017c-1.981,1.357-3.758,2.856-5.329,4.499   c-3.812,3.659-6.601,7.819-8.391,12.442c-1.781,4.643-3.173,9.498-4.151,14.604c-0.856,4.285-0.455,8.105,1.205,11.479   c1.656,3.374,4.37,5.766,8.127,7.177c2.423,1.018,4.833,1.463,7.23,1.356c2.406-0.107,4.937-0.321,7.597-0.625   c2.923-0.589,5.686-1.339,8.27-2.249c2.589-0.911,4.994-2.321,7.23-4.231c3.026-2.445,6.128-4.677,9.296-6.659   c3.165-1.999,6.61-3.748,10.31-5.284c1.593-0.696,2.981-1.767,4.151-3.177c1.178-1.429,1.883-2.804,2.129-4.143   c0.25-1.339,0.066-2.41-0.558-3.195c-0.611-0.785-1.91-0.893-3.901-0.321c-4.378,1.535-8.444,3.642-12.202,6.302   c-3.758,2.678-7.551,5.373-11.372,8.105c-1.317,0.839-2.705,1.588-4.16,2.285c-1.459,0.695-2.914,1.374-4.369,2.07   c-1.188,0.696-2.584,1.214-4.178,1.571c-1.598,0.374-3.07,0.089-4.414-0.821c-0.683-0.518-1.223-1.232-1.643-2.178   c-0.415-0.911-0.669-1.946-0.75-3.089c-0.094-1.125-0.112-2.268-0.067-3.392c0.045-1.143,0.192-2.107,0.451-2.91   C181.185,403.808,183.345,403.039,185.402,402.201 M140.32,440.029c-0.669-0.125-1.343-0.714-2.03-1.768   c-0.692-1.07-1.169-2.053-1.45-2.98c-0.34-4-0.34-7.98-0.009-11.908c0.326-3.945,0.919-7.926,1.79-11.943   c1.736-7.641,3.473-15.174,5.208-22.618c1.736-7.427,3.611-14.978,5.615-22.619c1.115-4.677,2.432-9.443,3.945-14.281   c1.518-4.82,3.11-9.587,4.767-14.282c1.004-3.499,1.981-6.855,2.923-10.068c0.942-3.213,1.919-6.427,2.933-9.658   c0.634-2.018,0.201-3.749-1.286-5.195c-1.776-1.82-3.668-3.23-5.686-4.195c-2.013-0.964-4.36-1.553-7.038-1.767   c-2.669-0.357-4.378,1.143-5.119,4.48c-0.495,2.285-0.924,4.553-1.29,6.819c-0.356,2.285-0.848,4.57-1.481,6.838l-9.047,31.795   c-1.254,4.963-2.503,9.89-3.749,14.781c-1.254,4.892-2.633,9.676-4.15,14.371c-1.633,6.034-2.959,12.015-3.994,17.888   c-1.031,5.892-1.964,11.926-2.785,18.066c-0.25,1.089-0.357,2.285-0.339,3.606c0.026,1.339-0.085,2.82-0.322,4.409l1.317,6.98   c0.191,3.07,1.571,5.588,4.142,7.552c2.705,2.213,5.539,3.998,8.498,5.355c2.955,1.339,6.172,2.053,9.645,2.124h0.803   c1.062-0.018,1.701,0,1.901,0.054c0.201,0.071,0.835,0.018,1.901-0.143c5.195-0.607,10.876-1.589,17.066-2.893   c6.177-1.303,12.131-2.73,17.835-4.302c5.712-1.571,10.818-3.106,15.335-4.57c4.508-1.481,7.689-2.714,9.542-3.678   c1.2-0.554,1.812-1.339,1.865-2.339c0.045-0.999-0.303-1.892-1.049-2.678c-0.75-0.785-1.83-1.445-3.235-1.945   c-1.41-0.518-2.981-0.554-4.709-0.125c-1.865,0.303-3.758,0.643-5.686,1c-1.928,0.374-3.82,0.91-5.677,1.606   c-3.191,0.856-6.708,1.696-10.564,2.481c-3.86,0.803-7.779,1.57-11.773,2.32c-3.985,0.732-7.917,1.393-11.773,2   c-3.865,0.606-7.319,1.053-10.386,1.374L140.32,440.029z"/>
	<path fill="#FFFFFF" d="M248.3,223.942l19.352-34.026c-13.684-9.676-30.027-15.353-48.04-15.353   c-44.042,0-79.741,34.035-79.741,76.068c0,42.367,35.7,76.412,79.741,76.412c17.674,0,34.026-5.678,47.371-14.692L248.3,279.002   c-25.024,24.69-68.396,4.338-68.396-27.702C179.903,215.266,226.609,200.261,248.3,223.942 M306.819,254.059   c-0.724-6.284-0.393-12.693,1.259-18.629c3.249-9.604,9.711-17.04,18.494-21.128c8.463-3.954,18.62-4.267,27.761-0.438   c5.909,2.401,11.032,6.266,15.076,11.015L306.819,254.059z M318.146,276.753l97.357-45.394c-1.062-4.668-2.598-8.729-4.57-12.961   c-17.906-38.4-63.438-54.726-101.535-36.954c-38.092,17.754-54.855,63.126-36.949,101.521   c17.768,38.097,63.434,54.734,101.53,36.954c20.869-9.712,35.553-27.975,41.033-48.571l-37.302-5.802   c-3.223,8.873-9.703,16.294-17.871,20.115c-8.765,4.089-18.619,4.267-28.215,0.269   C326.608,283.858,322.208,280.752,318.146,276.753 M543.513,143.321c-12.345-14.005-28.688-21.673-46.041-21.673   c-18.673,0-35.704,7.998-47.37,22.342c-11.685,14.353-17.684,34.035-17.684,57.386v27.028v39.025v59.327h40.025V267.43h43.041   v-39.837h-43.041v-26.216c0-9.346,1.678-39.694,25.028-39.694c7.677,0,13.354,4.998,15.675,8.006L543.513,143.321z"/>
</g>
</svg>