<?xml version="1.0" encoding="utf-8"?>
<!-- Generator: Adobe Illustrator 23.0.3, SVG Export Plug-In . SVG Version: 6.00 Build 0)  -->
<svg version="1.1" id="Calque_1" xmlns="http://www.w3.org/2000/svg" xmlns:xlink="http://www.w3.org/1999/xlink" x="0px" y="0px"
	 viewBox="0 0 763.6 521.6" style="enable-background:new 0 0 763.6 521.6;" xml:space="preserve">
<style type="text/css">
	.st0{opacity:0.86;fill:#B10F00;enable-background:new    ;}
	.st1{fill:#8B1600;}
</style>
<title>LOGO</title>
<g>
	<path class="st0" d="M205.6,87.6L388,1.7c4.4-2.4,9.7-2.2,13.6,0.7l183.5,118.2c3.7,2.4,5.7,6.6,5.7,11v122.4
		c0,7.3-5.9,13.2-13.2,13.2c-2.9,0-5.5-0.9-7.9-2.6l-88.1-65c-4.2-3.1-9.4-3.5-14.1-1.1l-50.8,26.8c-4,2.2-8.8,2-12.7-0.2L205,110.4
		c-6.4-3.5-8.6-11.6-4.8-18C201.7,90.4,203.4,88.7,205.6,87.6z"/>
	<path class="st1" d="M247.4,157l157.8,90.5c3.3,2,7.5,2,11,0.2l50.8-27.7c3.7-2,8.6-1.8,12.1,0.7L604.9,312
		c5.1,3.7,6.2,10.8,2.4,15.8c-0.7,0.9-1.5,1.8-2.4,2.4L460.5,437.7c-4,2.9-9.2,3.1-13.2,0.2l-123.7-87c-5.1-3.5-12.1-2.4-15.8,2.6
		c-1.3,2-2,4.2-2,6.4l-0.7,150.5c0,6.2-5.1,11.2-11.4,11.2c-2,0-4.2-0.7-5.9-1.8l-52.5-32.5c-3.3-2-5.3-5.7-5.3-9.7V166.9
		c0-6.2,5.1-11.2,11.2-11.4C243.9,155.5,245.8,155.9,247.4,157z"/>
</g>
</svg>
